<svg width="12" height="17" viewBox="0 0 12 17" fill="none" xmlns="http://www.w3.org/2000/svg">
<rect y="15" width="11" height="2" fill="black"/>
<path fill-rule="evenodd" clip-rule="evenodd" d="M7.01146 13.364C8.6883 11.2282 11.1429 8.10185 11.1429 5.46817C11.1429 2.44818 8.64844 0 5.57143 0C2.49441 0 0 2.44818 0 5.46817C0 8.10185 2.45456 11.2282 4.1314 13.364C4.64295 14.0156 5.08212 14.5749 5.35714 15H5.78571C6.06074 14.5749 6.49991 14.0156 7.01146 13.364ZM5.57087 2.78613C4.04147 2.78613 2.78516 4.04244 2.78516 5.57185C2.78516 7.10125 4.04147 8.35756 5.57087 8.35756C7.10027 8.35756 8.35658 7.10125 8.35658 5.57185C8.35658 4.04244 7.10027 2.78613 5.57087 2.78613Z" fill="black"/>
</svg>
