<svg width="25" height="25" viewBox="0 0 25 25" fill="none" xmlns="http://www.w3.org/2000/svg">
<path d="M1.15106 23.7878L2.74969 17.9804C1.76393 16.277 1.24538 14.3453 1.24608 12.3792C1.24608 6.19872 6.29921 1.1709 12.498 1.1709C15.5109 1.1709 18.3338 2.34016 20.4578 4.45592C22.5818 6.57177 23.7502 9.38919 23.7502 12.3847C23.7502 18.5651 18.6971 23.5929 12.4981 23.5929H12.4926C10.6088 23.5929 8.75858 23.1196 7.11522 22.2288L1.15106 23.7879V23.7878Z" fill="url(#paint0_linear)"/>
<path d="M9.58539 7.51843C9.36732 7.03399 9.13812 7.02281 8.93138 7.01726C8.76371 7.01172 8.5681 7.01172 8.3724 7.01172C8.17679 7.01172 7.86371 7.08409 7.59545 7.37359C7.32709 7.66318 6.57806 8.36473 6.57806 9.79577C6.57806 11.2211 7.62338 12.6019 7.76869 12.7967C7.914 12.9917 9.78656 16.015 12.7435 17.1787C15.203 18.1476 15.7061 17.9527 16.237 17.9026C16.7737 17.8525 17.9587 17.201 18.2046 16.5217C18.445 15.8425 18.445 15.2634 18.3723 15.1409C18.2996 15.0183 18.104 14.9461 17.8133 14.8012C17.5227 14.6565 16.0917 13.9549 15.8235 13.8547C15.5551 13.7545 15.3595 13.71 15.1695 13.9995C14.9738 14.289 14.4149 14.9404 14.2471 15.1354C14.0794 15.3302 13.9062 15.3525 13.6155 15.2077C13.3248 15.063 12.3858 14.7567 11.2735 13.7656C10.4071 12.9972 9.82015 12.0451 9.65238 11.7556C9.4847 11.4661 9.63568 11.3101 9.78099 11.1654C9.90951 11.0373 10.0716 10.8257 10.217 10.6587C10.3623 10.4917 10.4126 10.3692 10.5077 10.1743C10.6027 9.97942 10.5579 9.8124 10.4853 9.66765C10.4126 9.52281 9.84252 8.09187 9.58539 7.51843Z" fill="white"/>
<defs>
<linearGradient id="paint0_linear" x1="12.4502" y1="23.7863" x2="12.4502" y2="1.16954" gradientUnits="userSpaceOnUse">
<stop stop-color="#20B038"/>
<stop offset="1" stop-color="#60D66A"/>
</linearGradient>
</defs>
</svg>
